<?xml version="1.0" encoding="utf-8"?>
<!-- Generator: Adobe Illustrator 25.2.0, SVG Export Plug-In . SVG Version: 6.00 Build 0)  -->
<svg version="1.1" id="レイヤー_1" xmlns="http://www.w3.org/2000/svg" xmlns:xlink="http://www.w3.org/1999/xlink" x="0px"
	 y="0px" width="351.2px" height="195px" viewBox="0 0 351.2 195" style="enable-background:new 0 0 351.2 195;"
	 xml:space="preserve">
<style type="text/css">
	.st0{fill:#BF3F38;}
	.st1{fill:#040000;}
</style>
<g>
	<g>
		<path class="st0" d="M24.8,176.7c-5.1,0-9.7-1-12.7-2.9c-9.7-6.3-14.3-18.6-11.1-30c3.1-11.1,8.6-20.1,15.3-25.2
			c6.3-4.8,13.6-6.6,20.4-4.9c3.8,0.9,6.8,3.6,8.6,6.9c-1.5-3.8-4.2-7.4-9.2-12.3C24.9,97.4,19.9,85.6,21.4,73.2
			c0.8-6.8,3.7-13.8,8.2-19.6c4.1-5.4,9.4-9.5,14.5-11.3c8.8-3.1,16.1-1.9,21.6,3.6c4.4,4.4,6.1,8.4,6.3,14.8
			c0.2,7.3-2.1,12.5-7.6,17.5c-5.7,5.1-14.5,4.5-14.8,4.4c-0.9-0.1-1.6-0.5-2.2-1.1c1.1,1.6,2.4,3.1,4,4.8c1.8,1.9,3.8,4.1,5.6,6.8
			c1.5,2.1,2.7,3.8,3.6,5.1c1.6,2.3,2.7,3.8,3.8,5.6c0.5-3.6,1-7.3,1.4-10c1-6.1,2.2-12.3,2.3-12.4c0.2-1.1,1-2,2-2.4L80.9,75
			c0.6-0.2,1.3-0.3,1.9-0.1c0.4-0.5,0.9-1,1.5-1.2L95,69.7c1.1-0.4,2.3-0.2,3.2,0.5c0.5,0.5,0.9,1.1,1.1,1.7
			c1.4-1.8,2.9-3.3,4.2-4.5c2.2-1.8,6.4-3.2,8.6-3.2c0.7,0,1.4,0.1,2.1,0.3c0.3-1,1-1.7,2-2.1l9.6-3.4c1.1-0.4,2.3-0.2,3.2,0.6
			c0.9,0.8,1.3,1.9,1.1,3.1c0,0-0.2,1.1-0.5,2.7c1-1.3,2-2.4,3.1-3.5c3.3-3.1,6.1-4.1,8.3-4.6c1.2-0.3,2.6-0.3,3.8-0.3l0.3-0.7
			c0.4-0.9,1.2-1.6,2.2-1.9l10.2-2.6c1.1-0.3,2.2,0,3,0.7c0.4,0.4,0.7,0.8,0.9,1.3c1.5-1.8,3.3-3.3,5.3-4.2
			c5.3-2.5,10.5-1.9,13.7,1.7c1.3,1.4,2,3.1,2.5,4.5c0.1-0.9,0.2-2.3,0.1-3.5c0-1.3,0.7-2.4,1.8-3c1.1-0.6,2.5-0.4,3.5,0.4l4.7,3.9
			c0.6,0.5,1,1.3,1.1,2.1c0.1,0.7,0.6,6.6-3.1,11.2c-1.8,2.2-3.4,3.8-4.5,4.8c0.1,1.8,0.1,4.8-0.5,8.1c-1.1,6-3.6,11-7.9,15.8
			c-0.2,0.2-0.3,0.4-0.5,0.6c-1.3,1.6-3.7,4.5-8.8,4.8c-3.1,0.2-6.1-1.4-8.1-3.1c-0.7,1.5-1.6,2.9-2.6,4c-4.1,4.2-7.8,5.8-11.1,4.8
			c-1.2-0.4-2.1-0.8-2.8-1.4c-1.4,1.5-3.1,3.1-4.4,3.8c-4.1,2.3-9.5,2-12.2-0.8c-0.8-0.8-1.5-1.8-2.1-2.9l-1.2,1.1
			c-0.5,3.7-2.2,15-3.3,21.8c-1.3,7.8-5.4,17.4-12.6,19.1c-2.4,0.6-4.8,0.1-6.9-1.3c-3.7-2.4-5.8-7.1-6.4-10.7
			c-1.1-6-0.3-10.3,2.9-15.9c0.4-0.7,0.9-1.4,1.4-2.1c-0.6-0.2-1.2-0.4-1.8-0.7c-0.7,1-1.5,2.2-2.4,3.3c-1.7,2.2-4.3,5.4-8.7,5
			c-1.1-0.1-2.1-0.5-2.9-1c-0.6,0.9-1.2,1.8-2,2.7c-3.2,3.7-6.9,5.1-10.3,3.9c-0.5-0.2-1-0.4-1.5-0.8c-0.4,4-1.4,8.9-3.5,13.6
			c-4.3,9.7-8.5,17.8-18.8,26.1C41.2,174.4,32.4,176.7,24.8,176.7z M31.8,119.5c-3.9,0-7.9,1.4-11.5,4.2c-5.6,4.3-10.3,12-13,21.8
			c-2.9,10.1,2.3,18.9,8.3,22.8c4.8,3.1,19.6,2.6,27.6-3.7c9.2-7.3,12.8-14.4,16.9-23.6c3.9-8.7,3.2-18.8,3.2-18.9
			c-0.1-1.4,0.8-2.8,2.1-3.3c-1.1-0.3-2-1-2.3-2.1c0,0-1.4-4.1-3.2-7.7c-1.3-2.5-2.4-4-4.5-7c-1-1.3-2.2-3-3.7-5.2
			c-1.6-2.3-3.4-4.3-5.1-6.1c-3.4-3.7-6.6-7.3-7.6-12.6c-1.8-9.5,2.3-16.3,3.5-18.2c3.8-5.5,8.1-6,11-5.5c4.8,0.9,7.3,5.2,6.2,10.7
			c-0.7,3.5-3.9,5-6.4,5.7l-0.2,5.3c2.2-0.2,5-0.9,7-2.7c3.5-3.1,5.6-6.3,5.5-12.5c-0.1-4.8-1.2-7.2-4.4-10.5
			c-2.3-2.3-6.4-5.1-14.9-2.1c-7.7,2.7-17,13.3-18.5,25.6c-1.2,10.3,3.1,20.3,12.9,29.7c9.8,9.5,12.1,15.7,13,24.6
			c1,9.6-4.3,19.1-9.6,24.7c-6.5,7-13.4,7.6-17.5,5.9c-4.3-1.7-6.8-5.2-7.2-9.9c-0.4-4,0.8-10.2,5.4-14.6c1.9-1.8,4.3-2.5,6.5-1.9
			c2.3,0.6,4.1,2.4,4.9,4.8c0.6,2.1,0.2,5.5-0.5,8.7c0.2-0.1,0.3-0.3,0.5-0.4c4.4-4.3,4.6-8.4,4.9-14.7c0-0.7,0.1-1.3,0.1-2
			c0.2-3.4-2.4-8.1-5.8-8.9C34.2,119.6,33,119.5,31.8,119.5z M29.6,138.7c0,0-0.2,0.1-0.5,0.3c-3.2,3-3.6,7.4-3.5,9.3
			c0.2,2,0.9,3.3,2.3,4.1c-0.3-0.7-0.4-1.5-0.2-2.3c1.4-4.6,2.4-9.8,2.1-11C29.9,138.8,29.7,138.7,29.6,138.7z M101.5,126.3
			c-1,2.7-1.1,5-0.5,8.2c0.5,2.8,2,5.4,3.6,6.5c0.9,0.6,1.5,0.5,1.9,0.4c2.7-0.6,6.4-6,7.7-13.9c1.4-8.1,3.5-22.7,3.5-22.8
			c0.1-0.8,0.5-1.5,1.1-2l2-1.8c-0.1,0-0.2-0.1-0.3-0.1c-1.2-0.6-1.9-1.8-1.8-3.1c0-0.1,0.6-8.3,1.7-16.7c0.6-4.7,1.5-9.9,2.2-13.8
			L120,68l-0.3,1.5c-0.2,1-0.8,1.8-1.7,2.3c-0.9,0.5-1.9,0.5-2.9,0c-1-0.5-2.5-1-3.2-1c-0.8,0-3.5,0.9-4.4,1.7
			c-0.7,0.6-7,6.1-9.3,16.7c-1.9,8.8-1,18.5-1,18.5c0,0.3,0,0.6,0,0.9c0,0.2-0.1,0.5-0.3,0.8c0.4,0.1,0.8,0.4,1.2,0.7
			c0.5,0.4,2.2,1.6,3.9,1.6c0.7,0,2.2-0.4,3-0.7c1.4-0.5,3,0.1,3.8,1.4c0.8,1.3,0.6,3-0.5,4c0,0-0.3,0.3-0.8,0.8
			c0.2,0,0.4,0.1,0.5,0.1c1.2,0.4,2.1,1.4,2.2,2.7c0,0.1,0.4,3.3,0,6.6c-0.4,3.4-1.9,6.6-2.1,6.9c-0.6,1.1-1.7,1.8-3,1.8
			c-1.2,0-2.4-0.8-2.9-1.9C102.3,133.2,101.1,130.4,101.5,126.3z M67.2,118.7c0.8,0.2,1.6,0.7,2,1.5c1.2,2,3.1,4.2,3.9,4.5
			c0.5,0.2,1.9-0.5,3.2-2.1c1.8-2.1,3.4-5.6,3.4-5.6c0.5-1.2,1.8-1.9,3.1-1.9c1.3,0.1,2.5,0.9,2.9,2.1c0.2,0.6,0.7,1.3,1,1.5
			c0,0,0,0,0,0c0.5,0,1.2-0.5,2.9-2.6c0.8-1,1.5-2.1,2.1-3c-0.4-0.1-0.8-0.2-1-0.3c-2.7-1.2-2.5-4.6-2.3-7.3c0-0.5,0.1-1,0.1-1.5
			c0.2-2.9,0.4-6.1,1.2-11.9c0.6-3.9,1.5-10.1,2.2-14.6l-3.8,1.4c-1.1,6-4.5,25.2-5,29.1c-0.6,4.5-3.2,5.9-5.4,5.8
			c-2.8-0.2-4.8-3-4.7-6.4c0.1-3.6,0.9-8.3,2.2-14.8c0.6-3.2,1.4-6.7,2.1-9.6L74,84.5c-0.4,2.2-1.2,6.3-1.9,10.4
			c-1.1,7-2.8,21-2.8,21.2C69.1,117.3,68.3,118.3,67.2,118.7z M127.3,97.4c0.9,0.3,1.6,1,1.9,1.8c0.5,1.3,1.8,3.7,2.8,4.8
			c0.5,0.4,2.7,0.7,4.4-0.3c0.9-0.5,3.4-3.1,5.3-5.2c0.8-0.9,2.1-1.3,3.3-1c1.1,0.3,2,1.2,2.3,2.3c0.1,0.1,0.4,0.6,1.5,1
			c0.3,0,1.9-0.4,4.6-3.1c1-1,2-3.5,2.7-5.6c-1.4,0.6-2.6,0.1-3-0.1c-2.8-1.3-2.9-5-1.9-12.7c0.6-4.5,2.1-14,3-19.9l-3.8,1l-0.6,1.4
			c-0.6,1.4-2,2.2-3.5,2c-1-0.2-2.9-0.3-3.8,0c-1.4,0.3-3.1,0.9-5.4,3.1c-3.9,3.7-7.1,10.3-8,14.6c-0.7,3.7-0.7,11.1-0.6,13.6
			C128.4,95.9,128,96.8,127.3,97.4z M147.2,99.9C147.2,99.9,147.2,99.9,147.2,99.9C147.2,99.9,147.2,99.9,147.2,99.9z M147.2,99.9
			C147.2,99.9,147.2,99.9,147.2,99.9C147.2,99.9,147.2,99.9,147.2,99.9z M147.2,99.9C147.2,99.9,147.2,99.9,147.2,99.9
			C147.2,99.9,147.2,99.9,147.2,99.9z M162.6,90.7c0.2,0.4,0.7,1.1,1.2,1.7c0.8,1,2.9,2.5,4.3,2.4c2.3-0.2,3.2-1.3,4.2-2.5
			c0.2-0.3,0.5-0.6,0.7-0.8c3.5-3.9,5.5-7.8,6.3-12.6c0.7-4.1,0.3-7.9,0.3-7.9c-0.1-1.2,0.3-2.3,1.3-3c0,0,2.1-1.6,4.7-4.8
			c0.2-0.2,0.4-0.5,0.5-0.8c-1.5,1.4-3.5,2.3-5.5,1.8c-2.6-0.6-3.3-3-3.8-4.8c-0.4-1.2-0.8-2.6-1.6-3.5c-1.8-2-5.2-0.6-6.2-0.2
			c-3.5,1.6-7,7.9-8.5,15.1c-1.4,6.9,0,14,0,14.1c0.1,0.4,0.1,0.9,0,1.4c-0.1,0.4-0.3,1.1-0.9,2c0.2,0,0.5,0.1,0.7,0.1
			C161.5,88.6,162.3,89.6,162.6,90.7z M51.6,60.7c-0.8,0-2.1,0.4-3.8,2.9c-0.9,1.3-3.8,6.2-2.5,13.3c0.3,1.4,0.8,2.7,1.6,3.9
			c-0.2-0.4-0.3-0.9-0.3-1.5L46.9,68c0.1-1.6,1.3-3,2.9-3.1c1.4-0.1,3.1-0.7,3.5-1.1c0.5-2.7-0.7-3-1.2-3
			C52,60.7,51.8,60.7,51.6,60.7z M107.9,105.1c-0.4,0-0.8-0.1-1.2-0.2c-5.1-1.4-5.1-9.5-4.3-16.1c0.8-6,3-10.8,5.8-12.8
			c1.7-1.2,3.2-1.2,4.2-1c0.8,0.2,2,0.7,3,2.1c2.7,4,0.9,13.5,0.6,15.4c-0.9,4.4-2.6,10.1-5.6,11.9
			C109.6,104.8,108.7,105.1,107.9,105.1z M110.4,83.6c-0.6,1.4-1.2,3.4-1.6,6c-0.3,2.5-0.4,4.5-0.4,5.9c0.4-1.2,0.8-2.7,1.2-4.5l0,0
			C110.2,88.3,110.4,85.6,110.4,83.6z M137.3,97.3c-0.5,0-0.9-0.1-1.1-0.1c-3.9-0.9-5.8-7.2-4.4-14.9c1-5.7,4.3-12.9,8.4-15.5
			c2.1-1.3,3.9-1.3,5-1c1.5,0.4,2.7,1.3,3.5,2.6c1.9,3.2,1.1,8.2-1.2,16.8l0,0C144.8,96,139.6,97.3,137.3,97.3z M143.4,72.4
			c-1.6,1.3-4.3,5.8-5.2,11c-0.6,3.3-0.3,5.6,0,6.9c0.9-0.9,2.2-2.8,3.2-6.7C143.2,76.8,143.5,73.7,143.4,72.4z M144.5,84.3
			L144.5,84.3L144.5,84.3z M170.4,88.6c-0.1,0-0.3,0-0.4,0c-2.5-0.2-5.5-1.8-5.7-8.6c-0.1-5.1,1.8-7.6,2.2-8.1
			c0.6-0.7,1.4-1.2,2.3-1.2c0.9,0,1.7,0.3,2.3,0.9c0.1,0.1,0.5,0.4,1.1,0.5c0,0,0.2-0.1,0.2-0.1c1.6-0.5,4.6-0.3,5.2,1.3
			c0.1,0.4,1.4,3.9,0.1,8.4C176.2,86.8,173,88.6,170.4,88.6z M171.2,82.6C171.2,82.6,171.2,82.6,171.2,82.6L171.2,82.6z M170.8,78.3
			c0,0.4-0.1,0.9-0.1,1.5c0,0.6,0.1,1.1,0.1,1.5c0.2-0.4,0.4-0.8,0.6-1.5c0.1-0.5,0.2-1,0.3-1.4c-0.2,0-0.5,0-0.7-0.1
			C171,78.4,170.9,78.4,170.8,78.3z M171.1,71.6C171.1,71.6,171.1,71.6,171.1,71.6L171.1,71.6z M174,71.3c-0.8,0-1.5-0.2-2.2-0.5
			c-1.3-0.7-2.3-1.9-2.7-3.5c-0.4-1.5-0.5-3.9,0.9-5.6c0.9-1.2,2.4-1.8,3.9-1.6c2.7,0.2,3.6,2,4,3l0.1,0.2c0.8,1.7,0.9,3.7,0.2,5.3
			c-0.5,1.2-1.5,2.1-2.6,2.5l0,0C175,71.2,174.5,71.3,174,71.3z M173.4,66.4c0.8,0,1.6-0.6,1.8-1.1c-0.2-0.3-1-0.7-1.7-0.4
			c0,0,0,0,0,0c-0.6,0.2-1,0.6-1.1,0.9C172.6,66.2,173,66.4,173.4,66.4z"/>
		<g>
			<path class="st0" d="M114.5,195c-0.3,0-0.7-0.1-1-0.2c-1.5-0.5-2.4-2-2.2-3.5c0-0.1,1-8.3-3.4-12.6c-4.2-3.9-9.4-6-19.5-7.6
				c-18-2.9-37.5-0.3-37.7-0.3c-1.6,0.2-3.2-0.9-3.6-2.5c-0.4-1.6,0.6-3.3,2.1-3.8c0.9-0.3,91-29.9,135.7-38.3
				c16.9-3.2,32.7-6.6,47.9-9.8c7.5-1.6,14.8-3.2,22.1-4.7c-6.3-2.1-9.9-7.4-11.2-16.4c-0.5-3.8-0.9-8.5-1.2-13.4
				c-1.4,5.3-2.7,10.7-4,15c-2.3,8.1-3.5,10.6-6.3,10.9c-3.1,0.3-4.1-3-4.6-4.6c-0.5-1.5-1-3.7-1.6-6.5c-0.8-4-1.6-8.7-2.3-12.9
				c-0.4,3.5-0.7,6.4-0.9,7.8c-2,15.4-7.4,24-16.5,26.5c-7,1.9-15.9,2.6-22.1-8.5c-5.4-9.8-4.2-22.5-0.8-30.1
				c1.3-2.8,5.2-8.4,10.9-9.4c5.8-1.1,10.3,0.4,12.8,4c1.1-9.2,2.2-19.2,2.5-23.7c0.2-2.8,0.6-5.5,0.9-8.1c0.3-2.3,0.6-4.6,0.8-6.9
				c0,0-0.1,0-0.1,0c-2.3,0.4-7.1,0.1-10.4-3.5c-3.7-4-5.2-9.8-4.1-16.2c1-6,3.9-10.8,8-13.3c5.5-3.5,11.3-3.2,16.3,0.7
				c5.9,4.7,9,11.5,11.2,17.6c2.1,5.7,3.8,11.9,5,17.3c1.2-3.4,2.7-7,4.4-9.8c5.7-9.7,11.2-16.2,17.4-20.4
				c7.8-5.4,13.6-5.9,15.2-5.9c2.9-0.1,5.6,0.5,5.8,0.5c1.1,0.2,2,1,2.4,2.1s0.1,2.3-0.6,3.1c-0.1,0.1-5.6,6.6-8.7,11.2l-0.7,1
				c-3.2,4.8-8,12-9.7,20.3c-0.5,2.3-0.9,4.7-1.2,7.1c1.9-3.9,4.3-6.7,7.2-8.7c2.8-1.9,6.2-2.6,10.1-2c0.8,0.1,1.7,0.4,2.4,0.6
				c0.5-1,1.5-1.7,2.7-1.8l14.9-0.7c1.1-0.1,2.2,0.5,2.8,1.4c0.6,0.9,0.7,2.2,0.2,3.2c0,0-0.3,0.5-0.7,1.4c0.9-1.2,1.9-2.3,2.8-3.1
				c2.6-2.1,8.1-4.5,12.2-2.4c1.5,0.8,2.7,2.2,3.6,3.6c1-0.9,2.1-1.8,3.3-2.3c4.8-2.1,9.1-1.4,11.9,2c2.4,3.1,3.1,6.4,2.3,11
				c-0.9,5-3.9,8.2-6.4,9c-1.5,0.5-2.9,0.3-4-0.6c-0.3-0.3-0.5-0.5-0.7-0.8c-0.4,0.8-0.8,1.6-1.1,2.6c-1.6,4.5-1.6,6.5-1.5,7.8
				c0.1,0.5,0.2,0.8,0.3,1c0.1,0,0.3-0.1,0.5-0.1c0.4-0.1,0.8-0.3,1.1-0.4c3.3-1.2,6.7-2.5,11.8-1.3c8.8,2,13.4,7,13.9,14.8
				c0.5,8.8-3.3,17.6-10.2,23.3c-7.1,6-19.6,10.8-35,13.5c-33.4,6-58.5,11.9-110.9,29.4c-33.4,11.1-52.7,22.8-63.1,30.7
				c-11.2,8.5-14.6,14.5-14.6,14.5C116.8,194.4,115.7,195,114.5,195z M74.1,163.4c4.9,0.2,10.2,0.6,15.3,1.4
				c9.7,1.5,16.9,3.6,22.9,9.3c2.8,2.6,4.2,6,4.9,9.1c8.7-9.2,29.7-25.9,75.8-41.2c52.8-17.6,78.1-23.6,111.8-29.7
				c19.3-3.5,28.3-9.1,32-12.1c5.4-4.5,8.3-11.1,7.9-18c-0.2-2.7-1-4.6-2.6-6.1c1,1.6,1.7,3.6,1.9,5.6c0.4,4.3-1.3,10.7-7.4,15.6
				c-8.2,6.6-17.7,9.4-50.8,15.2c-17.2,3-34,6.6-51.7,10.4c-15.2,3.3-31,6.7-48,9.9C155.8,138.4,103.9,154.1,74.1,163.4z M198,76.1
				c-0.7,0-1.5,0.1-2.4,0.2c-2.7,0.5-5.2,3.7-6.2,5.7c-2.9,6.4-3.6,16.8,0.6,24.4c3.4,6.1,7.1,7.5,14.8,5.4c4-1.1,9.6-4.5,11.8-21.1
				c0.7-5.3,3.5-31.8,3.5-32.1c0.2-1.6,1.5-2.8,3.1-2.9c1.6,0,3,1.1,3.3,2.7c0,0.1,1.4,8.5,3,19.3c1.2,8.2,2.2,13.7,3,17.4
				c1.5-5.3,3.3-12.4,4.6-17.5l0.4-1.4c2.4-9.3,4.6-17.1,4.6-17.2c0.4-1.5,1.9-2.5,3.5-2.3c1.6,0.2,2.8,1.6,2.8,3.2
				c0,0.2,0.3,23,1.9,34.5c1.4,9.8,5.2,11.8,11.4,11.9c0.1,0,0.1,0,0.2,0c6.9,0,11-5.8,12.9-9.2c1.3-2.4,2.4-4.9,3.2-7.1
				c-0.1,0.1-0.1,0.2-0.2,0.3c-1.8,2.4-6.7,6.3-11.8,6.5c-4.4,0.2-7.8-3.2-9.5-9.3c-1.5-5.4-2.4-13.3-2.4-21.1
				c0-9.9,0.8-18.8,2.6-27.4c1.9-9.5,7.1-17.3,10.6-22.6l0.7-1c1.5-2.2,3.3-4.7,5-6.8c-2.5,0.5-6.1,1.8-10.1,4.6
				c-5.3,3.6-10.2,9.5-15.5,18.4c-4.1,7.1-7.4,20.5-7.5,20.6c-0.4,1.5-1.7,2.5-3.3,2.5c-1.5-0.1-2.8-1.2-3-2.7
				c0-0.2-2.5-16.4-7.2-28.9c-2.8-7.4-5.5-11.9-9.2-14.8c-2.9-2.3-5.6-2.4-8.8-0.3c-2.5,1.6-4.4,4.9-5.1,9c-0.6,3.4-0.2,6.3,1,8.6
				c0-0.1,0-0.1,0-0.2c-0.4-3.9,0.2-6.7,1.8-8.4c1.1-1.2,2.6-1.9,4.3-1.9c4.4,0,7.4,4.2,7.9,11c0.4,5.8-0.3,11.3-1,17
				c-0.3,2.6-0.6,5.2-0.9,7.9c-0.7,8.5-4.1,37.6-5,42.6c-1.3,7.5-6.1,10-10.2,9.9c-4.8-0.1-7.6-5.2-7.7-9.9
				c-0.3-6.3,1.4-10,4.9-11.2c1.9-0.6,3.7-0.4,5.1,0.7c0,0,0.1,0.1,0.1,0.1c0-1.1-0.2-2.3-0.6-3.7C202.4,78.3,201.8,76.1,198,76.1z
				 M285.6,87c-0.9,2.9-2.7,8.1-5.4,13.2c-1.7,3.2-3.8,5.8-6.1,7.8c3.5-0.7,7.1-1.3,10.6-1.9c31.4-5.5,40.8-8.2,47.9-13.9
				c5.4-4.3,5.1-9.4,5-9.9c-0.1-1.5-0.9-3-1.9-3.8c-0.5-0.4-0.9-0.5-1.3-0.5c-0.8,0.1-2.1,1.3-3.3,2.4c-1.7,1.5-3.8,3.4-6.5,4.5
				c-5.1,1.9-9.5-0.2-11.8-2.5c-0.2-0.2-0.3-0.4-0.5-0.5c-2.3,2.1-5.5,4.5-8.8,4.6c-4.2,0.1-7.2-1.7-8.8-5.4c-0.4,0.7-0.7,1.4-1,1.8
				C292.2,85.6,288.4,86.7,285.6,87z M199.7,92.2c0,0.3,0,0.7,0,1.1c0.1,2,1.1,3.7,1.5,3.7c1.6,0,2.5-1,3.1-2.4
				c-0.1,0-0.1,0-0.1,0.1c-1,0.4-2.2,0.3-3.1-0.3C200.3,93.8,199.8,93,199.7,92.2z M262.1,84.2c0.1,0.6,0.3,1.1,0.4,1.7
				c0.8,2.8,2,4.6,3.1,4.6c2.3-0.1,5.4-2.2,6.7-3.7C267.5,87.2,264.3,85.9,262.1,84.2z M282.9,79.7c0.3,0.3,0.4,0.7,0.5,1.1
				c2-0.1,4.2-0.7,4.7-1.2c0.8-1.5,2.4-4.4,3.7-6.7c-0.8,0.6-1.9,0.7-2.9,0.4c-1.2-0.4-2-1.5-2.1-2.8c0-0.3-0.5-7,2.1-15.7
				c1.4-4.8,3.4-9.7,5-13.2l-7.2,0.3l-0.3,1c-0.3,1.1-1,1.9-2.1,2.3c-1,0.4-2.2,0.2-3-0.5c-0.4-0.3-2-1.4-3.4-1.6
				c-2.3-0.3-4.1,0-5.6,1c-3.4,2.3-5.9,6.8-7.8,14c-2.1,7.9-1.8,16.5,0.5,19.9c1,1.5,3.1,3.3,8.7,1.9c1.4-0.4,2-0.9,2.8-1.4
				c0,0,0.1-0.1,0.1-0.1c0.6-1.4,2-2.1,3.5-1.9c1.5,0.3,2.6,1.5,2.7,3C282.8,79.5,282.9,79.7,282.9,79.7z M299.8,72.3
				c0.1,1.7,0.3,3.9,0.6,5c0.6,2.1,1,2.6,3,2.6c1.6,0,4.8-2.8,6.8-5.3c0.7-0.9,1.7-1.3,2.8-1.2c1.1,0.1,2,0.7,2.6,1.7
				c0.2,0.4,1.1,1.8,2,2.8c0.3,0.3,2.1,2,4.8,1c1.6-0.6,3.1-1.9,4.5-3.2c0.6-0.6,1.3-1.1,1.9-1.7c-0.4,0.1-0.7,0.3-1.1,0.4
				c-0.4,0.1-0.8,0.3-1.2,0.4c-2.9,1-4.9,0.3-6.1-0.4c-1.8-1.1-3-3.2-3.3-5.8c-0.3-2.9,0.2-6.1,1.8-10.7c2.1-6.1,6.9-11.9,11.1-11.2
				c0.4,0.1,0.8,0.2,1.1,0.3c0.1-2.2-0.5-3.2-1.2-4.1c-0.3-0.4-1.2-1.5-4.2-0.1c-1.4,0.6-3.4,3-4,4c-0.7,1-1.9,1.6-3.1,1.4
				c-1.2-0.2-2.2-1-2.6-2.2c-0.7-2.1-2.1-4.4-2.8-4.8c-0.8-0.4-3.5,0.4-5.1,1.7c-1.5,1.2-4,5-5.8,8.3l1.4,1.1c0,0,0-0.1,0.1-0.1
				c0.9-1.3,3.3-4.9,6.7-4c5.2,1.3,3.6,9.3,2.4,15.7c-1.2,6-3.6,9.5-7.7,11c-1.3,0.5-2.6,0.4-3.7-0.3
				C300.6,74,300.1,73.2,299.8,72.3z M282.6,79.4C282.6,79.4,282.6,79.4,282.6,79.4C282.6,79.4,282.6,79.4,282.6,79.4z M282.6,79.4
				C282.6,79.4,282.6,79.4,282.6,79.4C282.6,79.4,282.6,79.4,282.6,79.4z M282.6,79.4C282.6,79.4,282.6,79.4,282.6,79.4
				C282.6,79.4,282.6,79.4,282.6,79.4z M276.6,78.3C276.6,78.3,276.6,78.3,276.6,78.3C276.6,78.3,276.6,78.3,276.6,78.3z
				 M298.3,68.4c0.4,0.3,0.7,0.6,0.9,1c0-0.2,0-0.3,0-0.5c0-0.2,0-0.4,0-0.6C299,68.3,298.7,68.4,298.3,68.4z M299.1,67.6
				C299.1,67.6,299.1,67.6,299.1,67.6S299.1,67.6,299.1,67.6z M299.2,61.9c2.4,0,4.3,0.9,5.5,2.5c0.4,0.6,0.6,1.2,0.8,1.8
				c0.4-0.9,0.8-2.1,1.1-3.7c0.3-1.4,0.5-2.5,0.6-3.6c-0.5,0.6-1.1,1-1.8,1.1c-0.9,0.2-1.9,0-2.7-0.6l-6.5-5
				c-0.1-0.1-0.2-0.2-0.4-0.3c-0.3,0.8-0.5,1.6-0.7,2.3c-0.7,2.5-1.2,4.7-1.5,6.7c0.5-0.3,1-0.5,1.6-0.7
				C296.6,62.1,297.9,61.9,299.2,61.9z M327.2,50.7L327.2,50.7L327.2,50.7z M210.5,22c-0.1,0.5-0.1,1.4,0,2.7
				c0.1,1.4,0.7,2.7,1.2,3.6c0-0.6,0-1.2-0.1-1.7C211.5,24.1,210.9,22.7,210.5,22z M274,76c-0.4,0-0.8,0-1.3-0.1
				c-5.4-1.1-5.9-9.4-4.9-14.4c1.3-6.4,4.5-17.1,11.5-16.3c2,0.2,4.6,1.5,5,6.3c0.2,2.5-0.1,6.2-0.5,11.2
				c-0.6,6.9-3.1,10.2-5.2,11.8C277.2,75.5,275.5,76,274,76z M277.8,52.5c-1.2,1.6-2.7,5.3-3.7,10.3c-0.5,2.6-0.2,5.5,0.2,6.7
				c0.9-0.4,2.6-2.1,3-7.4v0C277.6,59.1,277.9,54.8,277.8,52.5z"/>
		</g>
	</g>
	<g>
		<path class="st1" d="M190.6,56.3l-4.7-3.9c0,0,0.1,3.8-0.5,5.4c-0.6,1.7-2.5,3.5-4,3.2c-1.5-0.4-1.3-4.6-3.8-7.4
			c-2.5-2.7-6.4-2.6-9.9-0.9c-5,2.3-8.8,9.7-10.3,17.4c-1.5,7.7,0,15.4,0,15.4s-0.2,1.1-2.1,3.1c-1.9,2-1.9-2.3-1.1-8.9
			C155,73,158,55,158,55l-10.2,2.6l-1.2,2.9c0,0-3.1-0.5-5.1,0c-1.7,0.4-4,1.2-6.9,3.8c-4.5,4.2-8,11.5-8.9,16.3
			c-0.9,4.8-0.7,14.3-0.7,14.3l-3.2,2.8c0,0,0.6-8.2,1.7-16.6c1.1-8.4,3.2-19.2,3.2-19.2l-9.6,3.4l-0.6,3.3c0,0-2.7-1.3-4.6-1.3
			c-1.5,0-4.9,1.1-6.5,2.4c-3.1,2.6-8.3,9-10.4,18.5S94.1,108,94.1,108s-0.1,0.6-1.2,1.7c-1.1,1.1-1.4,0-1.2-3.8
			c0.2-3.2,0.3-6.5,1.3-13.1c0.9-6.6,3.1-20,3.1-20l-10.6,3.9c0,0-4.7,26.4-5.3,31.1c-0.6,4.7-3.8,3.1-3.7-0.1
			c0.1-3.2,0.8-7.6,2.1-14.3c1.3-6.7,3.4-15.4,3.4-15.4l-10.9,4.1c0,0-1.2,6.1-2.2,12.3c-1.2,7.2-2.9,21.3-2.9,21.3
			s-1.4-4.3-3.4-8.2c-2-3.9-3.5-5.6-8.4-12.5c-4.8-7-10.9-10.6-12.2-17.5c-1.3-6.9,0.8-12.6,3-15.8c2.2-3.2,4.7-5,7.7-4.4
			c4.3,0.9,4.4,5.2,3.5,7.7c-1,2.7-6.2,3.1-6.2,3.1l-0.4,11.3c0,0,7.8,0.6,12.5-3.6c4.3-3.9,6.7-8,6.5-15c-0.2-5.9-1.7-9-5.3-12.7
			c-3.7-3.7-9.2-6-18.2-2.8c-9,3.2-19,14.8-20.6,28.3C23.1,86.1,29.1,97,38.4,106c9.3,9,11.2,14.5,12,22.6c0.8,8-3.4,16.5-8.7,22.2
			c-5.3,5.7-10.8,6.4-14,5.1s-4.9-3.7-5.3-7.2c-0.3-2.7,0.4-8.1,4.4-11.9c2.5-2.4,5.3-0.9,6.1,1.5c1,3.1-2.1,12.9-2.1,12.9
			s3.3,0.7,7.4-3.2c5.9-5.7,5.6-11.4,6-18.9c0.3-4.9-3.3-11-8.3-12.2c-5.4-1.3-11.8-0.1-17.7,4.4c-5.9,4.5-11.1,12.7-14.2,23.5
			c-3.1,10.9,2,21.4,9.7,26.4c6.1,3.9,22.4,3.2,31.3-3.9c9.8-7.8,13.6-15.3,17.9-24.8s3.4-20.5,3.4-20.5s3,5,5.6,5.9
			c2.6,0.9,5.2-1.3,6.7-3c2.2-2.5,3.9-6.4,3.9-6.4s1.2,3.4,3.7,3.7c2.4,0.2,4-1.4,5.8-3.8c2-2.5,3.9-5.8,3.9-5.8s2.7,2.4,6,2.5
			c1.6,0,4.1-0.8,4.1-0.8s-3.9,3.7-5.9,7.2c-2.9,5.1-3.4,8.6-2.5,13.7c0.9,5.1,4.6,10.6,9.5,9.4c4.8-1.1,8.8-8.3,10.2-16.5
			c1.4-8.3,3.5-22.9,3.5-22.9l5.3-4.6c0,0,1.6,3.9,3.4,5.8c1.6,1.6,5.5,1.8,8.3,0.2c1.9-1.1,6.1-5.9,6.1-5.9s0.4,2.2,3.7,3.2
			c2.4,0.7,5.4-1.5,7.8-3.9c2.4-2.4,3.9-8.5,3.9-8.5c-0.1,0.4,1.2,2.3,1.9,3.1c1.2,1.5,4.3,3.7,7,3.5c4.3-0.3,5.8-3,7.1-4.4
			c4.4-4.8,6.3-9.5,7.1-14.2s0.3-8.9,0.3-8.9s2.4-1.7,5.3-5.4C191.1,61.4,190.6,56.3,190.6,56.3z M107.2,126.4
			c-0.3,3-1.8,5.8-1.8,5.8s-1.1-2.4-0.7-5.9c0.4-3.5,2.5-5.8,2.5-5.8S107.5,123.4,107.2,126.4z M112.8,91.8
			c-1.1,5.5-3.1,10.6-5.2,10c-2.1-0.6-2.8-5.6-1.9-12.6c0.9-7,3.8-11.6,6.2-11.1C114.2,78.6,113.9,86.3,112.8,91.8z M144.5,84.3
			c-2.3,9-6.2,10-7.5,9.7c-1.4-0.3-3.2-4.4-1.9-11.2c1.2-6.8,5.7-14.9,9.5-14C147.8,69.7,146.9,75.4,144.5,84.3z M174.6,80.8
			c-1,3.6-2.9,4.7-4.3,4.6c-1.4-0.1-2.6-1.4-2.7-5.5S169,74,169,74s1,0.9,2.6,1.2c1.6,0.3,2.9-0.8,2.9-0.8S175.6,77.2,174.6,80.8z
			 M174.5,68c-1.1,0.4-2-0.4-2.4-1.6c-0.3-1.2-0.2-3.3,1.5-3.2c0.9,0.1,1,0.3,1.5,1.4C175.6,65.7,175.6,67.6,174.5,68z"/>
		<path class="st1" d="M348,82c-0.5-8.4-6.7-10.8-11.4-11.9c-4.7-1.1-7.4,0.3-11.2,1.6c-3.7,1.3-4.8-1.6-5-3.6c-0.2-2,0-4.6,1.6-9.2
			c2-5.8,5.8-9.4,7.5-9.1c2.5,0.4-1.4,5.2-0.5,5.9c0.8,0.7,4.2-1.7,5.1-6.5c0.8-4.2-0.1-6.5-1.6-8.4c-1.9-2.4-4.9-2.5-8-1.1
			c-2.8,1.2-5.4,5.2-5.4,5.2s-1.8-5.3-4.3-6.6c-2.5-1.3-6.6,0.4-8.6,2c-3.4,2.7-7.9,11.7-7.9,11.7l6.5,5c0,0,3.1-6.2,5-5.8
			c1.9,0.5,1.2,5.9,0,11.9s-3.5,7.8-5.7,8.7c-2.1,0.8-1.2-4.4-2-5.6c-0.8-1.2-3-1.6-5.8-0.6c-2.8,0.9-6.2,4.6-6.2,4.6
			s-0.4-6.3,2-14.5c2.5-8.4,7-17.6,7-17.6l-14.9,0.7l-0.8,3.4c0,0-2.4-1.9-4.9-2.2c-2.5-0.4-5.3-0.2-7.8,1.5c-3,2-6.6,6-9.1,15.9
			c-2.1,8-2.2,17.9,1,22.5c3.3,4.8,9,3.9,12.1,3.1c2-0.5,3-1.3,4-2c0.4-0.3,0.9-0.9,1.1-1.4c0.1,1.5,0.7,2.1,0.7,2.1
			s-2.6,3.1-5.3,6.7c-1.6,2.1-5.7,5.1-9.3,5.3c-3,0.1-5.2-2.8-6.3-6.9c-1.3-4.7-2.3-12.1-2.3-20.3s0.6-17.3,2.5-26.8
			c1.9-9.5,7.6-17.5,10.8-22.4c3.2-4.9,8.9-11.6,8.9-11.6s-2.5-0.5-5-0.5c-2.7,0.1-7.8,1.4-13.5,5.4c-6.7,4.6-12,11.8-16.4,19.4
			s-7.8,21.5-7.8,21.5s-2.5-16.6-7.3-29.5c-2.6-7.1-5.5-12.5-10.2-16.2C214.4,2,210,3,206.5,5.2c-3,1.9-5.6,5.7-6.5,11.2
			c-1,5.5,0.2,10.2,3.2,13.4s7.5,2.5,7.5,2.5s-3-2.8-3.4-7.3c-0.4-3.6,0.1-6.7,2.9-6.7c2.8,0,4.3,3.7,4.6,8
			c0.5,8.1-1.2,15.9-1.9,24.4S208.9,88.1,208,93c-0.8,4.9-3.6,7.3-6.9,7.2c-3-0.1-4.5-4.1-4.6-6.8c-0.1-3.6,0.3-7.2,2.7-8
			c4.2-1.4,3.7,6.3,3.7,6.3s1.8-0.8,2.9-3.4c0.6-1.5,1.5-4.8,0.1-9.7c-1.4-4.9-5.5-6.4-10.9-5.4c-4.1,0.8-7.4,5.1-8.5,7.6
			c-3.1,7-4.1,18.6,0.7,27.2c4.5,8.2,10.4,9.2,18.4,7c7.5-2,12.2-9.1,14.1-23.8c0.7-5.4,3.5-32.2,3.5-32.2s1.3,8.3,3,19.2
			c1.8,12.2,4.3,26.5,5.8,26.4c1.6-0.1,5.3-15.1,8.5-27.5C242.8,67.8,245,60,245,60s0.2,23,1.9,34.9c1.7,11.9,7.3,14.5,14.5,14.6
			c7.2,0.1,12.7-4.8,16-10.9c3.8-7.1,5.7-14.7,5.7-14.7s6.3-0.2,7.8-2.8c1.4-2.6,5.6-10.1,5.6-10.1s0.1,4.8,0.7,7
			c0.6,2.2,1.7,5.1,6.2,5c4.2-0.1,9.2-6.5,9.2-6.5s1,2,2.5,3.5c1.6,1.7,4.7,3.1,8.3,1.8c4.5-1.7,7.1-6.5,10.5-7
			c3.5-0.5,6.5,3.2,6.8,7.2c0.3,3.1-0.9,8.5-6.2,12.8c-7.6,6.1-17,8.9-49.3,14.5c-32.3,5.6-63.1,13.4-99.7,20.3
			c-45,8.5-135.2,38.2-135.2,38.2S70.3,165,89,168c10.2,1.6,16.3,3.8,21.2,8.4c5.7,5.4,4.4,15.3,4.4,15.3s13.2-24.7,79.5-46.7
			c51.4-17.2,76.6-23.3,111.4-29.5c16.9-3,27.7-8,33.5-12.8C344.7,97.8,348.5,90.4,348,82z M280.5,62.4c-0.7,8.9-5.1,10.8-7.2,10.4
			c-2.9-0.6-3.1-7-2.4-10.6c1.1-5.3,3.8-14.2,8-13.8C281.5,48.7,281.4,52.4,280.5,62.4z"/>
	</g>
</g>
</svg>
